<svg width="189" height="50" viewBox="0 0 189 50" fill="none" xmlns="http://www.w3.org/2000/svg">
<path d="M17.5 12C17.5 10.8954 18.3954 10 19.5 10H30.5C31.6046 10 32.5 10.8954 32.5 12V38C32.5 39.1046 31.6046 40 30.5 40H19.5C18.3954 40 17.5 39.1046 17.5 38V12Z" fill="white"/>
<path fill-rule="evenodd" clip-rule="evenodd" d="M5 0H45C47.7614 0 50 2.23858 50 5V45C50 47.7614 47.7614 50 45 50H5C2.23858 50 0 47.7614 0 45V5C0 2.23858 2.23858 0 5 0ZM25 47C37.1503 47 47 37.1503 47 25C47 12.8497 37.1503 3 25 3C12.8497 3 3 12.8497 3 25C3 37.1503 12.8497 47 25 47Z" fill="white"/>
<g clip-path="url(#clip0_13011_524)">
<path d="M79.02 36.3H64.98V32.43H69.6V17.67H64.98V13.8H79.02V17.67H74.4V32.43H79.02V36.3ZM89.9883 32.55C92.1183 32.55 94.4583 32.04 96.0483 31.38L97.0083 35.4C94.5483 36.33 92.5683 36.75 89.9883 36.75C85.4283 36.75 82.9683 34.53 82.9683 30.45V19.65C82.9683 15.57 85.4283 13.35 89.9883 13.35C92.5683 13.35 94.5483 13.77 97.0083 14.7L96.0483 18.72C94.4583 18.06 92.1183 17.55 89.9883 17.55C88.3083 17.55 87.7683 18.21 87.7683 20.22V29.88C87.7683 31.89 88.3083 32.55 89.9883 32.55ZM107.977 36.75C103.417 36.75 100.957 34.53 100.957 30.45V19.65C100.957 15.57 103.417 13.35 107.977 13.35C112.537 13.35 114.997 15.57 114.997 19.65V30.45C114.997 34.53 112.537 36.75 107.977 36.75ZM107.977 17.55C106.297 17.55 105.757 18.21 105.757 20.22V29.88C105.757 31.89 106.297 32.55 107.977 32.55C109.657 32.55 110.197 31.89 110.197 29.88V20.22C110.197 18.21 109.657 17.55 107.977 17.55ZM128.635 36.3L123.385 23.13L123.595 36.3H119.395V13.8H123.295L128.545 26.97L128.335 13.8H132.535V36.3H128.635ZM150.973 36.3H136.933V32.43H141.553V17.67H136.933V13.8H150.973V17.67H146.353V32.43H150.973V36.3ZM168.361 32.13V36.3H155.521V32.55L163.261 17.97H155.521V13.8H168.361V17.55L160.621 32.13H168.361ZM173.81 36.3V13.8H186.05V17.67H178.61V22.5H185.75V26.37H178.61V32.43H186.05V36.3H173.81Z" fill="white"/>
</g>
<defs>
<clipPath id="clip0_13011_524">
<rect width="124" height="50" fill="white" transform="translate(65)"/>
</clipPath>
</defs>
</svg>
