<svg width="164" height="50" viewBox="0 0 164 50" fill="none" xmlns="http://www.w3.org/2000/svg">
<path fill-rule="evenodd" clip-rule="evenodd" d="M16.1957 1.60083C3.53127 6.41689 -3.00528 21.2427 1.60062 33.8042L24.9528 10.4521L16.1957 1.60083Z" fill="white"/>
<path opacity="0.5" fill-rule="evenodd" clip-rule="evenodd" d="M16.1016 1.60069L39.5479 24.9529L48.305 16.1016C43.3806 3.33485 28.8814 -3.08525 16.1016 1.60069Z" fill="white"/>
<path opacity="0.5" fill-rule="evenodd" clip-rule="evenodd" d="M10.4518 24.9529L1.60059 33.8041C6.46173 46.5871 21.2785 52.9322 33.8981 48.305L10.4518 24.9529Z" fill="white"/>
<path fill-rule="evenodd" clip-rule="evenodd" d="M48.3053 16.1958L24.9531 39.548L33.8044 48.3992C46.2426 43.494 53.3657 28.8469 48.3053 16.1958Z" fill="white"/>
<g clip-path="url(#clip0_13011_552)">
<path d="M69.448 32.501H73.23C74.2013 32.501 75.1003 32.3357 75.927 32.005C76.7743 31.6537 77.508 31.168 78.128 30.548C78.7687 29.928 79.2543 29.2047 79.585 28.378C79.9363 27.5513 80.112 26.6523 80.112 25.681C80.112 24.7097 79.9363 23.8107 79.585 22.984C79.2337 22.1367 78.748 21.403 78.128 20.783C77.508 20.163 76.7743 19.6773 75.927 19.326C75.1003 18.9747 74.2013 18.799 73.23 18.799H69.448V32.501ZM64.953 36.5V14.8H73.292C74.9247 14.8 76.4333 15.079 77.818 15.637C79.2027 16.1743 80.4117 16.939 81.445 17.931C82.4783 18.923 83.2843 20.0803 83.863 21.403C84.4623 22.7257 84.762 24.1517 84.762 25.681C84.762 27.231 84.4727 28.657 83.894 29.959C83.3153 31.261 82.499 32.408 81.445 33.4C80.4117 34.3713 79.2027 35.136 77.818 35.694C76.4333 36.2313 74.9247 36.5 73.292 36.5H64.953ZM95.4657 36.81C93.8537 36.81 92.3864 36.438 91.0637 35.694C89.7617 34.95 88.7284 33.9477 87.9637 32.687C87.1991 31.4263 86.8167 30.0107 86.8167 28.44C86.8167 26.8693 87.1784 25.4537 87.9017 24.193C88.6457 22.9323 89.6481 21.93 90.9087 21.186C92.1694 20.442 93.5747 20.07 95.1247 20.07C96.6747 20.07 98.0491 20.4523 99.2477 21.217C100.446 21.9817 101.387 23.015 102.069 24.317C102.771 25.619 103.123 27.0967 103.123 28.75V29.866H91.1567C91.3427 30.5067 91.6424 31.0853 92.0557 31.602C92.4897 32.1187 93.0167 32.5217 93.6367 32.811C94.2774 33.1003 94.9594 33.245 95.6827 33.245C96.4061 33.245 97.0674 33.1313 97.6667 32.904C98.2867 32.6767 98.8137 32.3563 99.2477 31.943L102.038 34.485C101.046 35.291 100.023 35.88 98.9687 36.252C97.9354 36.624 96.7677 36.81 95.4657 36.81ZM91.0947 26.828H98.9377C98.7931 26.1873 98.5244 25.6293 98.1317 25.154C97.7597 24.658 97.3051 24.2757 96.7677 24.007C96.2511 23.7177 95.6724 23.573 95.0317 23.573C94.3704 23.573 93.7711 23.7073 93.2337 23.976C92.6964 24.2447 92.2417 24.627 91.8697 25.123C91.5184 25.5983 91.2601 26.1667 91.0947 26.828ZM102.778 36.5L108.978 28.285L102.933 20.349H107.862L111.427 25.154L114.961 20.349H119.735L113.783 28.223L120.107 36.5H115.147L111.334 31.354L107.521 36.5H102.778ZM121.709 36.5V20.349H125.956V36.5H121.709ZM123.817 18.427C123.156 18.427 122.587 18.1893 122.112 17.714C121.637 17.2387 121.399 16.6703 121.399 16.009C121.399 15.327 121.637 14.7587 122.112 14.304C122.587 13.8287 123.156 13.591 123.817 13.591C124.499 13.591 125.067 13.8287 125.522 14.304C125.997 14.7587 126.235 15.327 126.235 16.009C126.235 16.6703 125.997 17.2387 125.522 17.714C125.067 18.1893 124.499 18.427 123.817 18.427ZM137.4 43.134C136.16 43.134 134.961 42.9997 133.804 42.731C132.646 42.483 131.603 42.1213 130.673 41.646L132.161 38.36C133.049 38.794 133.917 39.1143 134.765 39.321C135.612 39.5277 136.459 39.631 137.307 39.631C138.567 39.631 139.518 39.3623 140.159 38.825C140.82 38.2877 141.151 37.4817 141.151 36.407V35.136C139.828 36.1073 138.35 36.593 136.718 36.593C135.188 36.593 133.804 36.2313 132.564 35.508C131.344 34.764 130.363 33.7617 129.619 32.501C128.895 31.2403 128.534 29.8453 128.534 28.316C128.534 26.7867 128.895 25.402 129.619 24.162C130.363 22.922 131.365 21.9403 132.626 21.217C133.886 20.473 135.292 20.101 136.842 20.101C137.627 20.101 138.392 20.2147 139.136 20.442C139.88 20.6693 140.572 20.9897 141.213 21.403V20.349H145.398V36.469C145.398 38.5977 144.705 40.2407 143.321 41.398C141.957 42.5553 139.983 43.134 137.4 43.134ZM137.369 32.997C138.154 32.997 138.867 32.873 139.508 32.625C140.148 32.3563 140.696 31.9843 141.151 31.509V25.185C140.696 24.7303 140.138 24.379 139.477 24.131C138.836 23.8623 138.144 23.728 137.4 23.728C136.511 23.728 135.715 23.9347 135.013 24.348C134.31 24.7407 133.752 25.2883 133.339 25.991C132.925 26.673 132.719 27.448 132.719 28.316C132.719 29.2047 132.915 30.0003 133.308 30.703C133.721 31.4057 134.279 31.9637 134.982 32.377C135.705 32.7903 136.501 32.997 137.369 32.997ZM148.713 36.5V20.349H152.96V21.682C154.179 20.5867 155.688 20.039 157.486 20.039C158.747 20.039 159.852 20.318 160.803 20.876C161.774 21.4133 162.529 22.1677 163.066 23.139C163.603 24.0897 163.872 25.2057 163.872 26.487V36.5H159.625V27.107C159.625 26.053 159.325 25.2263 158.726 24.627C158.127 24.007 157.31 23.697 156.277 23.697C155.554 23.697 154.913 23.8417 154.355 24.131C153.797 24.3997 153.332 24.7923 152.96 25.309V36.5H148.713Z" fill="white"/>
<path d="M134.035 17.6978C134.035 17.6089 134.021 17.5291 133.994 17.4585C133.969 17.3856 133.921 17.3195 133.851 17.2603C133.78 17.1987 133.681 17.1383 133.553 17.0791C133.426 17.0199 133.26 16.9583 133.058 16.8945C132.832 16.8216 132.618 16.7396 132.415 16.6484C132.215 16.5573 132.037 16.4513 131.882 16.3306C131.729 16.2075 131.608 16.0651 131.52 15.9033C131.433 15.7415 131.39 15.5535 131.39 15.3394C131.39 15.132 131.435 14.944 131.526 14.7754C131.618 14.6045 131.745 14.4587 131.909 14.3379C132.073 14.2148 132.267 14.1203 132.49 14.0542C132.716 13.9881 132.963 13.9551 133.232 13.9551C133.599 13.9551 133.919 14.0212 134.192 14.1533C134.466 14.2855 134.678 14.4666 134.828 14.6968C134.981 14.9269 135.057 15.1901 135.057 15.4863H134.039C134.039 15.3405 134.008 15.2129 133.946 15.1035C133.887 14.9919 133.796 14.9041 133.673 14.8403C133.552 14.7765 133.399 14.7446 133.215 14.7446C133.037 14.7446 132.889 14.772 132.771 14.8267C132.652 14.8791 132.563 14.9508 132.504 15.042C132.445 15.1309 132.415 15.2311 132.415 15.3428C132.415 15.4271 132.436 15.5034 132.477 15.5718C132.52 15.6401 132.584 15.7039 132.668 15.7632C132.752 15.8224 132.856 15.8783 132.979 15.9307C133.102 15.9831 133.244 16.0343 133.406 16.0845C133.677 16.1665 133.916 16.2588 134.121 16.3613C134.328 16.4639 134.501 16.5789 134.64 16.7065C134.779 16.8341 134.884 16.9788 134.955 17.1406C135.025 17.3024 135.061 17.4858 135.061 17.6909C135.061 17.9074 135.018 18.1011 134.934 18.272C134.85 18.4429 134.728 18.5876 134.568 18.7061C134.409 18.8245 134.219 18.9146 133.998 18.9761C133.777 19.0376 133.529 19.0684 133.256 19.0684C133.01 19.0684 132.767 19.0365 132.528 18.9727C132.289 18.9066 132.071 18.8075 131.875 18.6753C131.681 18.5431 131.526 18.3745 131.41 18.1694C131.294 17.9644 131.236 17.7217 131.236 17.4414H132.265C132.265 17.5964 132.289 17.7274 132.336 17.8345C132.384 17.9416 132.451 18.0282 132.538 18.0942C132.627 18.1603 132.732 18.2082 132.853 18.2378C132.976 18.2674 133.11 18.2822 133.256 18.2822C133.434 18.2822 133.579 18.2572 133.693 18.207C133.81 18.1569 133.895 18.0874 133.95 17.9985C134.007 17.9097 134.035 17.8094 134.035 17.6978ZM139.453 14.0234V19H138.431V14.0234H139.453ZM140.984 14.0234V14.8267H136.924V14.0234H140.984ZM145.787 14.0234H146.809V17.3115C146.809 17.6943 146.727 18.0168 146.563 18.2788C146.401 18.5409 146.176 18.738 145.889 18.8701C145.604 19.0023 145.276 19.0684 144.905 19.0684C144.533 19.0684 144.203 19.0023 143.914 18.8701C143.627 18.738 143.401 18.5409 143.237 18.2788C143.075 18.0168 142.994 17.6943 142.994 17.3115V14.0234H144.02V17.3115C144.02 17.5348 144.055 17.7171 144.126 17.8584C144.196 17.9997 144.298 18.1034 144.43 18.1694C144.564 18.2355 144.723 18.2686 144.905 18.2686C145.092 18.2686 145.25 18.2355 145.38 18.1694C145.512 18.1034 145.612 17.9997 145.681 17.8584C145.751 17.7171 145.787 17.5348 145.787 17.3115V14.0234ZM150.651 19H149.567L149.574 18.2002H150.651C150.92 18.2002 151.146 18.1398 151.331 18.019C151.515 17.896 151.654 17.7171 151.748 17.4824C151.844 17.2477 151.891 16.964 151.891 16.6313V16.3887C151.891 16.1335 151.864 15.909 151.809 15.7153C151.757 15.5216 151.678 15.3587 151.574 15.2266C151.469 15.0944 151.34 14.9953 151.187 14.9292C151.035 14.8608 150.859 14.8267 150.661 14.8267H149.547V14.0234H150.661C150.994 14.0234 151.298 14.0804 151.574 14.1943C151.852 14.306 152.092 14.4666 152.295 14.6763C152.498 14.8859 152.654 15.1366 152.763 15.4282C152.875 15.7176 152.931 16.04 152.931 16.3955V16.6313C152.931 16.9845 152.875 17.307 152.763 17.5986C152.654 17.8903 152.498 18.141 152.295 18.3506C152.094 18.5579 151.854 18.7186 151.574 18.8325C151.296 18.9442 150.988 19 150.651 19ZM150.148 14.0234V19H149.123V14.0234H150.148ZM156.236 14.0234V19H155.214V14.0234H156.236ZM162.754 16.3955V16.6313C162.754 17.0096 162.703 17.3491 162.6 17.6499C162.498 17.9507 162.353 18.207 162.166 18.4189C161.98 18.6286 161.756 18.7892 161.496 18.9009C161.239 19.0125 160.953 19.0684 160.639 19.0684C160.326 19.0684 160.04 19.0125 159.781 18.9009C159.523 18.7892 159.3 18.6286 159.111 18.4189C158.922 18.207 158.775 17.9507 158.67 17.6499C158.567 17.3491 158.516 17.0096 158.516 16.6313V16.3955C158.516 16.015 158.567 15.6755 158.67 15.377C158.772 15.0762 158.917 14.8198 159.104 14.6079C159.293 14.396 159.516 14.2342 159.774 14.1226C160.034 14.0109 160.32 13.9551 160.632 13.9551C160.946 13.9551 161.232 14.0109 161.49 14.1226C161.749 14.2342 161.973 14.396 162.16 14.6079C162.349 14.8198 162.495 15.0762 162.597 15.377C162.702 15.6755 162.754 16.015 162.754 16.3955ZM161.719 16.6313V16.3887C161.719 16.1243 161.695 15.8919 161.647 15.6914C161.599 15.4909 161.528 15.3223 161.435 15.1855C161.342 15.0488 161.228 14.9463 161.093 14.8779C160.959 14.8073 160.805 14.772 160.632 14.772C160.459 14.772 160.305 14.8073 160.17 14.8779C160.038 14.9463 159.925 15.0488 159.832 15.1855C159.741 15.3223 159.671 15.4909 159.623 15.6914C159.576 15.8919 159.552 16.1243 159.552 16.3887V16.6313C159.552 16.8934 159.576 17.1258 159.623 17.3286C159.671 17.5291 159.742 17.6989 159.835 17.8379C159.929 17.9746 160.043 18.0783 160.177 18.1489C160.312 18.2196 160.465 18.2549 160.639 18.2549C160.812 18.2549 160.966 18.2196 161.1 18.1489C161.234 18.0783 161.347 17.9746 161.438 17.8379C161.53 17.6989 161.599 17.5291 161.647 17.3286C161.695 17.1258 161.719 16.8934 161.719 16.6313Z" fill="white"/>
</g>
<defs>
<clipPath id="clip0_13011_552">
<rect width="99" height="50" fill="white" transform="translate(65)"/>
</clipPath>
</defs>
</svg>
