<svg width="160" height="50" viewBox="0 0 160 50" fill="none" xmlns="http://www.w3.org/2000/svg">
<path d="M33.3444 14.3239C42.1165 14.3845 49.3401 21.7226 49.2189 30.4542C49.1045 39.1522 41.9078 46.2682 33.2165 46.2884C24.4916 46.3086 17.2074 38.9637 17.268 30.2186C17.3285 21.386 24.532 14.2701 33.3444 14.3239ZM45.3951 30.3196C45.4085 23.5336 39.9151 18.0266 33.1627 18.0535C26.5382 18.0805 21.0851 23.5537 21.0178 30.2455C20.9437 36.8498 26.4776 42.4443 33.0886 42.4645C39.9487 42.4914 45.3816 37.1326 45.3951 30.3196Z" fill="white"/>
<path d="M23.1387 48.8601C14.0502 46.901 7.04198 37.6779 6.75923 27.9499C6.46301 17.8718 13.3298 8.56115 23.0848 5.80095C32.0184 3.27638 42.9111 6.92523 46.735 13.8594C36.5452 4.37612 20.4371 5.72786 12.9125 17.8112C7.29107 26.8391 8.71156 41.6701 23.1387 48.8601Z" fill="white"/>
<path d="M19.4329 50C9.07214 47.7667 1.08285 37.2524 0.760517 26.1626C0.422833 14.6737 8.25095 4.05968 19.3715 0.91308C29.5557 -1.96491 41.9733 2.19474 46.3325 10.0996C34.7162 -0.71122 16.3531 0.829748 7.77513 14.6046C1.36681 24.8963 2.98616 41.8035 19.4329 50Z" fill="white"/>
<path d="M46.3648 17.3938C36.2127 8.38616 23.9129 12.1697 18.6686 19.4741C15.2621 24.227 14.2724 29.4579 15.7468 35.0658C17.2009 40.5795 20.8094 44.4169 26.3635 47.1771C18.8234 45.8575 12.751 38.3848 12.0441 30.2052C11.3237 21.7967 16.7903 13.5228 24.9497 10.6818C32.8062 7.94184 42.0158 10.7896 46.3648 17.3938Z" fill="white"/>
<path d="M33.243 36.3988C36.6079 36.3988 39.3357 33.671 39.3357 30.3061C39.3357 26.9413 36.6079 24.2135 33.243 24.2135C29.8782 24.2135 27.1504 26.9413 27.1504 30.3061C27.1504 33.671 29.8782 36.3988 33.243 36.3988Z" fill="white"/>
<g clip-path="url(#clip0_13011_510)">
<path d="M74.7181 36.74C68.1561 36.74 65.3001 33.714 65.3001 29.328V28.75H68.9041V29.124C68.9041 31.946 70.0941 33.374 74.8541 33.374C78.2201 33.374 79.4441 32.456 79.4441 30.348C79.4441 28.274 78.7641 27.526 75.2621 26.812L71.3861 26.03C67.4761 25.282 65.3681 23.378 65.3681 19.774C65.3681 16.408 67.9861 13.28 73.8681 13.28C80.1581 13.28 82.6741 16.816 82.6741 20.862V21.27H79.0701V20.896C79.0701 18.108 77.8461 16.646 73.7661 16.646C70.4001 16.646 69.0401 17.598 69.0401 19.604C69.0401 21.678 69.9581 22.256 73.0861 22.936L76.9621 23.752C81.2461 24.636 83.1161 26.778 83.1161 30.212C83.1161 33.782 80.5321 36.74 74.7181 36.74ZM89.3556 17.36H85.7176L85.6836 13.62H89.3556V17.36ZM89.3896 36.4H85.7176V19.4H89.3896V36.4ZM99.1575 34.802C94.4995 34.802 91.9155 31.742 91.9155 26.982C91.9155 22.222 94.5335 19.162 99.2935 19.162C102.013 19.162 104.121 20.318 104.937 22.29H105.073V19.502H108.439V35.176C108.439 40.174 105.515 42.52 100.585 42.52C95.7915 42.52 92.7995 40.242 92.7995 36.162H96.4375C96.4375 38.474 97.2875 39.256 100.687 39.256C103.985 39.256 104.801 38.304 104.801 35.176V31.81H104.665C103.883 33.442 101.911 34.802 99.1575 34.802ZM95.5875 26.982C95.5875 30.45 97.0155 31.674 100.211 31.674C102.965 31.674 104.801 30.348 104.801 27.492V26.438C104.801 23.616 102.965 22.29 100.143 22.29C96.9815 22.29 95.5875 23.514 95.5875 26.982ZM115.724 36.4H112.052V19.502H115.418V22.664H115.554C116.336 20.862 118.138 19.162 121.436 19.162C125.822 19.162 127.794 21.95 127.794 25.792V36.4H124.122V26.608C124.122 23.582 123.17 22.324 120.076 22.324C117.084 22.324 115.724 23.48 115.724 26.642V36.4ZM138.758 36.74C133.182 36.74 130.564 33.204 130.564 27.934C130.564 22.698 133.692 19.162 138.724 19.162C143.28 19.162 146.476 21.882 146.476 26.506C146.476 27.39 146.374 28.308 146.272 28.818H133.998C134.134 31.912 135.256 33.476 138.792 33.476C141.614 33.476 142.702 32.524 142.702 30.994V30.722H146.34V31.028C146.34 34.496 143.314 36.74 138.758 36.74ZM138.656 22.256C135.46 22.256 134.236 23.752 134.032 26.37H142.974C143.11 23.48 141.546 22.256 138.656 22.256ZM156.312 36.4C152.538 36.4 150.566 35.006 150.566 31.198V22.562H147.744V19.502H150.634L151.416 15.32H154.238V19.502H159.338V22.562H154.238V31.028C154.238 32.796 154.986 33.102 157.264 33.102H159.338V36.094C158.624 36.264 157.468 36.4 156.312 36.4Z" fill="white"/>
</g>
<defs>
<clipPath id="clip0_13011_510">
<rect width="95" height="50" fill="white" transform="translate(65)"/>
</clipPath>
</defs>
</svg>
