<svg width="226" height="50" viewBox="0 0 226 50" fill="none" xmlns="http://www.w3.org/2000/svg">
<path d="M49.8662 12.0624C50.4925 9.60553 49.0085 7.1061 46.5516 6.47982C44.0946 5.85355 41.5952 7.33758 40.9689 9.79451C40.3427 12.2514 41.8267 14.7509 44.2836 15.3771C46.7405 16.0034 49.24 14.5194 49.8662 12.0624Z" fill="white"/>
<path d="M34.4477 7.94628C38.6903 2.65222 31.2517 -2.66888 27.3643 2.18078C27.1462 2.39939 1.93817 33.466 1.76757 33.7248C-2.71175 39.3138 4.41428 45.0253 8.85094 39.4903C9.06886 39.2715 34.2771 8.20482 34.4477 7.94628Z" fill="white"/>
<path d="M40.0007 24.8616C44.0722 19.7814 36.9464 14.0701 32.9194 19.0942C32.6994 19.3142 15.5752 40.4938 15.4032 40.7547C11.3049 46.0625 18.4307 51.7737 22.4845 46.522C22.7045 46.302 39.829 25.1224 40.0007 24.8616Z" fill="white"/>
<path d="M8.55583 15.214C10.9255 14.3124 12.1156 11.6605 11.214 9.29076C10.3124 6.92106 7.66043 5.73095 5.29073 6.63259C2.92102 7.53422 1.73092 10.1862 2.63255 12.5559C3.53418 14.9256 6.18613 16.1157 8.55583 15.214Z" fill="white"/>
<g clip-path="url(#clip0_13011_561)">
<path d="M71.8961 36.85L65.0801 13.938H67.4801L72.1201 29.682C72.4401 30.802 72.7281 31.954 73.0161 33.458C73.4001 31.794 73.7201 30.802 74.0721 29.682L79.0641 13.938H81.4641L86.4561 29.682C86.8081 30.834 87.1281 31.986 87.4801 33.458C87.8321 31.698 88.1201 30.578 88.3761 29.714L93.1121 13.938H95.4481L88.5681 36.85H86.3921L80.2481 17.394L74.1041 36.85H71.8961ZM96.4778 36.85H94.1418L102.558 13.938H105.406L113.918 36.85H111.518L109.278 30.77H98.7178L96.4778 36.85ZM103.678 17.17L99.4218 28.754H108.542L104.254 17.17C104.158 16.85 103.998 16.466 103.966 16.242C103.934 16.434 103.806 16.85 103.678 17.17ZM120.227 27.282L112.451 13.938H115.043L120.707 23.826C120.963 24.306 121.155 24.69 121.379 25.202C121.667 24.626 121.667 24.626 122.083 23.826L127.683 13.938H130.211L122.531 27.282V36.85H120.227V27.282ZM137.226 13.458V33.074H147.018V36.85H133.13V13.458H137.226ZM154.444 13.458V36.85H150.348V13.458H154.444ZM163.662 36.85H159.63V13.458H163.694L174.67 30.034V13.458H178.702V36.85H174.67L163.662 20.274V36.85ZM198.408 36.85H183.88V13.458H198.408V17.234H187.976V23.25H197.32V26.866H187.976V33.074H198.408V36.85Z" fill="white"/>
</g>
<defs>
<clipPath id="clip0_13011_561">
<rect width="161" height="50" fill="white" transform="translate(65)"/>
</clipPath>
</defs>
</svg>
