<svg width="194" height="50" viewBox="0 0 194 50" fill="none" xmlns="http://www.w3.org/2000/svg">
<path fill-rule="evenodd" clip-rule="evenodd" d="M25.4904 48.5587C35.8826 48.5587 45.0983 41.696 48.0394 31.696C39.8604 33.0591 31.042 29.671 25.4904 23.6567C19.9388 29.671 11.1205 33.0591 2.94141 31.696C6.07866 41.892 15.0983 48.5587 25.4904 48.5587Z" fill="white"/>
<path opacity="0.5" fill-rule="evenodd" clip-rule="evenodd" d="M49.0197 26.7939C49.0197 15.8017 43.1739 5.72053 32.1569 2.48022C33.1687 8.551 31.4243 15.1719 28.2354 20.3234C33.5069 25.846 41.5311 28.6661 49.0197 26.7939Z" fill="white"/>
<path opacity="0.5" fill-rule="evenodd" clip-rule="evenodd" d="M22.5492 20.1273C19.2811 15.0995 17.6293 8.47031 18.6276 2.48022C7.69973 5.75859 1.96094 15.8948 1.96094 26.7939C9.41518 28.6575 17.5239 25.9064 22.5492 20.1273Z" fill="white"/>
<path fill-rule="evenodd" clip-rule="evenodd" d="M25.4897 16.0098C27.0583 13.0686 27.8426 9.73529 27.8426 6.20588C27.8426 4.63725 27.6465 3.06863 27.2544 1.5C26.6661 1.5 26.0779 1.5 25.4897 1.5C24.9014 1.5 24.3132 1.5 23.725 1.5C23.3328 3.06863 23.1367 4.63725 23.1367 6.20588C23.1367 9.73529 24.1171 13.0686 25.4897 16.0098Z" fill="white"/>
<g clip-path="url(#clip0_13011_530)">
<path d="M78.539 30.163C78.539 29.041 77.219 28.678 75.272 28.183L72.467 27.49C68.639 26.533 65.207 25.147 65.207 20.527C65.207 15.874 69.266 13.3 74.15 13.3C78.473 13.3 81.212 14.521 82.697 15.379V21.352C80.486 19.966 76.856 18.679 73.952 18.679C72.236 18.679 71.213 19.108 71.213 20.098C71.213 21.253 72.566 21.616 74.81 22.21L77.252 22.87C80.684 23.794 84.314 25.048 84.314 29.8C84.314 34.288 80.387 36.73 75.14 36.73C71.015 36.73 67.682 35.41 66.164 34.321V28.546C68.408 30.196 72.5 31.549 75.503 31.549C77.813 31.549 78.539 31.054 78.539 30.163ZM89.6208 17.293C87.4428 17.293 86.1228 16.303 86.1228 14.62C86.1228 12.937 87.4428 11.98 89.6208 11.98C91.8318 11.98 93.0858 12.937 93.0858 14.62C93.0858 16.303 91.8318 17.293 89.6208 17.293ZM86.9478 18.91H92.2278V36.4H86.9478V18.91ZM112.143 32.605C112.143 39.502 107.886 41.944 102.969 41.944C100.197 41.944 97.8208 41.152 96.3688 40.261V34.948C97.9858 36.169 100.131 36.994 102.375 36.994C105.873 36.994 106.863 35.476 106.863 33.43V33.232C105.741 33.958 104.289 34.519 102.375 34.519C98.2498 34.519 95.0818 31.747 95.0818 27.325C95.0818 21.22 99.9988 18.58 104.751 18.58C108.051 18.58 110.394 19.438 112.143 20.131V32.605ZM100.56 26.599C100.56 29.008 102.177 29.767 103.926 29.767C104.949 29.767 106.005 29.503 106.863 29.173V23.596C106.236 23.431 105.51 23.299 104.718 23.299C102.474 23.299 100.56 24.289 100.56 26.599ZM124.245 23.695C122.892 23.695 121.605 23.992 120.648 24.388V36.4H115.368V18.91H120.318V20.989C121.704 19.735 123.948 18.58 126.654 18.58C130.977 18.58 132.528 21.352 132.528 25.18V36.4H127.248V26.599C127.248 24.916 126.489 23.695 124.245 23.695ZM143.919 31.615C145.272 31.615 146.559 31.318 147.516 30.922V18.91H152.796V36.4H147.846V34.321C146.46 35.575 144.216 36.73 141.51 36.73C137.187 36.73 135.636 33.958 135.636 30.13V18.91H140.916V28.711C140.916 30.394 141.675 31.615 143.919 31.615ZM164.649 23.695C163.428 23.695 162.273 24.025 161.382 24.388V36.4H156.102V18.91H161.052V20.989C162.405 19.735 164.484 18.58 167.058 18.58C169.599 18.58 171.117 19.636 171.909 21.352C173.196 19.966 175.473 18.58 178.278 18.58C182.37 18.58 183.822 21.352 183.822 25.18V36.4H178.542V26.599C178.542 24.883 177.882 23.695 175.869 23.695C174.648 23.695 173.46 24.025 172.569 24.388C172.602 24.652 172.602 24.916 172.602 25.18V36.4H167.322V26.599C167.322 24.883 166.662 23.695 164.649 23.695ZM189.779 36.895C187.964 36.895 186.512 35.443 186.512 33.628C186.512 31.813 187.964 30.328 189.779 30.328C191.594 30.328 193.079 31.813 193.079 33.628C193.079 35.443 191.594 36.895 189.779 36.895Z" fill="white"/>
</g>
<defs>
<clipPath id="clip0_13011_530">
<rect width="129" height="50" fill="white" transform="translate(65)"/>
</clipPath>
</defs>
</svg>
